<?xml version="1.0" encoding="UTF-8" standalone="no"?>
<!-- Created with Inkscape (http://www.inkscape.org/) -->

<svg
   width="279.39999mm"
   height="215.89999mm"
   viewBox="0 0 279.4 215.9"
   version="1.1"
   id="svg1467"
   inkscape:version="1.1.2 (b8e25be8, 2022-02-05)"
   sodipodi:docname="Rasp3BShell_Final.svg"
   xmlns:inkscape="http://www.inkscape.org/namespaces/inkscape"
   xmlns:sodipodi="http://sodipodi.sourceforge.net/DTD/sodipodi-0.dtd"
   xmlns="http://www.w3.org/2000/svg"
   xmlns:svg="http://www.w3.org/2000/svg">
  <sodipodi:namedview
     id="namedview1469"
     pagecolor="#505050"
     bordercolor="#ffffff"
     borderopacity="1"
     inkscape:pageshadow="0"
     inkscape:pageopacity="0"
     inkscape:pagecheckerboard="false"
     inkscape:document-units="mm"
     showgrid="true"
     units="mm"
     inkscape:zoom="1.1327756"
     inkscape:cx="499.21626"
     inkscape:cy="305.00304"
     inkscape:window-width="1792"
     inkscape:window-height="1067"
     inkscape:window-x="0"
     inkscape:window-y="25"
     inkscape:window-maximized="0"
     inkscape:current-layer="layer1">
    <inkscape:grid
       type="xygrid"
       id="grid1471"
       spacingx="0.5"
       spacingy="0.5"
       empcolor="#010108"
       empopacity="0.36470588"
       color="#06fc00"
       opacity="0.25490196"
       units="mm" />
  </sodipodi:namedview>
  <defs
     id="defs1464">
    <inkscape:path-effect
       effect="bspline"
       id="path-effect3475"
       is_visible="true"
       lpeversion="1"
       weight="33.333333"
       steps="2"
       helper_size="0"
       apply_no_weight="true"
       apply_with_weight="true"
       only_selected="false" />
  </defs>
  <g
     inkscape:label="Layer 1"
     inkscape:groupmode="layer"
     id="layer1">
    <path
       id="path3473-8"
       style="fill:none;fill-opacity:1;stroke:#000000;stroke-width:0.999999px;stroke-linecap:butt;stroke-linejoin:miter;stroke-opacity:1"
       d="M 409.69727 10.404297 C 406.61302 10.444686 403.64336 11.221438 401.57617 12.599609 C 396.85118 15.749715 396.85019 22.04759 388.97656 26.771484 C 381.10294 31.495379 365.35427 34.645162 349.60547 37.794922 L 84.59375 37.794922 C 68.935952 34.663257 53.322398 31.522851 45.494141 26.826172 C 37.620512 22.10228 37.619514 15.804401 32.894531 12.654297 C 30.827341 11.276122 27.857687 10.499388 24.773438 10.458984 C 20.807987 10.407054 16.655259 11.570699 13.998047 14.228516 C 9.2741401 18.953518 9.2746577 28.403043 12.423828 33.126953 C 15.57301 37.850864 21.870685 37.850051 26.595703 45.724609 C 31.320725 53.599168 34.471648 69.346488 37.621094 85.09375 L 37.794922 84.919922 L 37.794922 137.00781 L 47.244141 137.00781 L 56.603516 141.6875 L 71.810547 141.6875 C 73.904405 141.6875 75.589844 143.37489 75.589844 145.46875 L 75.589844 180.4082 C 75.589844 182.50206 73.904405 184.1875 71.810547 184.1875 L 56.246094 184.1875 L 47.193359 188.71484 L 37.794922 188.71484 L 37.794922 240.25 C 34.645473 255.99726 31.494553 271.74458 26.769531 279.61914 C 22.044513 287.4937 15.746838 287.49289 12.597656 292.2168 C 9.4484859 296.94071 9.4479682 306.39023 14.171875 311.11523 C 16.829087 313.77305 20.981816 314.9367 24.947266 314.88477 C 28.031515 314.84436 31.001169 314.06763 33.068359 312.68945 C 37.793347 309.53935 37.794338 303.24147 45.667969 298.51758 C 53.541586 293.79368 69.290263 290.6439 85.039062 287.49414 L 84.789062 287.24414 L 350.07617 287.24414 L 349.78906 287.53125 C 365.53786 290.68101 381.28649 293.83079 389.16016 298.55469 C 397.03378 303.27858 397.03479 309.57646 401.75977 312.72656 C 403.82694 314.10474 406.79661 314.88147 409.88086 314.92188 C 413.8463 314.97381 417.99902 313.81016 420.65625 311.15234 C 425.38017 306.42734 425.37965 296.97782 422.23047 292.25391 C 419.08129 287.53 412.78361 287.53081 408.05859 279.65625 C 403.33354 271.78169 400.18265 256.03437 397.0332 240.28711 L 396.84961 240.4707 L 396.84961 85.039062 C 399.99906 69.2918 403.14998 53.54448 407.875 45.669922 C 412.60002 37.795363 418.8977 37.796175 422.04688 33.072266 C 425.19604 28.348356 425.19657 18.898832 420.47266 14.173828 C 417.81545 11.516013 413.66272 10.352368 409.69727 10.404297 z M 411.24023 17.400391 A 6.1417322 6.1417322 0 0 1 417.38281 23.542969 A 6.1417322 6.1417322 0 0 1 411.24023 29.683594 A 6.1417322 6.1417322 0 0 1 405.09766 23.542969 A 6.1417322 6.1417322 0 0 1 411.24023 17.400391 z M 23.230469 17.455078 A 6.1417323 6.1417323 0 0 1 29.373047 23.597656 A 6.1417323 6.1417323 0 0 1 23.230469 29.738281 A 6.1417323 6.1417323 0 0 1 17.087891 23.597656 A 6.1417323 6.1417323 0 0 1 23.230469 17.455078 z M 70.03125 64.84375 A 5.1968396 5.19685 0 0 1 75.228516 70.041016 A 5.1968396 5.19685 0 0 1 70.03125 75.238281 A 5.1968396 5.19685 0 0 1 64.835938 70.041016 A 5.1968396 5.19685 0 0 1 70.03125 64.84375 z M 289.74023 64.923828 A 5.1968397 5.1968501 0 0 1 294.9375 70.121094 A 5.1968397 5.1968501 0 0 1 289.74023 75.316406 A 5.1968397 5.1968501 0 0 1 284.54297 70.121094 A 5.1968397 5.1968501 0 0 1 289.74023 64.923828 z M 70.171875 250.02734 A 5.1968399 5.1968503 0 0 1 75.369141 255.22266 A 5.1968399 5.1968503 0 0 1 70.171875 260.41992 A 5.1968399 5.1968503 0 0 1 64.976562 255.22266 A 5.1968399 5.1968503 0 0 1 70.171875 250.02734 z M 289.82422 250.21289 A 5.1968398 5.1968502 0 0 1 295.02148 255.41016 A 5.1968398 5.1968502 0 0 1 289.82422 260.60742 A 5.1968398 5.1968502 0 0 1 284.62891 255.41016 A 5.1968398 5.1968502 0 0 1 289.82422 250.21289 z M 23.404297 295.60547 A 6.1417323 6.1417323 0 0 1 29.546875 301.74609 A 6.1417323 6.1417323 0 0 1 23.404297 307.88867 A 6.1417323 6.1417323 0 0 1 17.261719 301.74609 A 6.1417323 6.1417323 0 0 1 23.404297 295.60547 z M 411.42383 295.64258 A 6.1417323 6.1417323 0 0 1 417.56641 301.7832 A 6.1417323 6.1417323 0 0 1 411.42383 307.92578 A 6.1417323 6.1417323 0 0 1 405.28125 301.7832 A 6.1417323 6.1417323 0 0 1 411.42383 295.64258 z "
       transform="scale(0.26458333)" />
    <path
       id="path3473-8-5"
       style="fill:none;fill-opacity:1;stroke:#000000;stroke-width:0.264583px;stroke-linecap:butt;stroke-linejoin:miter;stroke-opacity:1"
       d="m 108.3991,85.134539 c -0.81604,0.0107 -1.60177,0.2162 -2.14871,0.58084 -1.25015,0.83346 -1.25041,2.49978 -3.33365,3.74964 -2.08322,1.24986 -6.25006,2.08324 -10.41693,2.91662 H 22.379544 c -4.141928,-0.82842 -8.271727,-1.65923 -10.342523,-2.90163 -2.0832282,-1.24987 -2.0834955,-2.91618 -3.3336464,-3.74964 -0.5469387,-0.36465 -1.3326666,-0.57016 -2.148705,-0.58085 -1.0491894,-0.0137 -2.1479299,0.29414 -2.8509886,0.99736 -1.2498599,1.25015 -1.2497329,3.75034 -0.4165124,5.00021 0.8332205,1.24987 2.4994817,1.24965 3.7496406,3.33313 1.2501721,2.083481 2.0838451,6.249951 2.9171344,10.416421 l 0.046511,-0.0465 v 41.09775 c -0.8332947,4.16646 -1.6669782,8.33294 -2.9171371,10.41642 -1.2501721,2.08347 -2.9164227,2.08326 -3.7496432,3.33312 -0.8332206,1.24987 -0.8333476,3.75006 0.4165123,5.00022 0.7030588,0.70321 1.8017993,1.01109 2.8509886,0.99735 0.8160411,-0.0107 1.6017663,-0.2162 2.148705,-0.58084 1.2501534,-0.83347 1.2504204,-2.49978 3.3336494,-3.74964 2.083231,-1.24987 6.250067,-2.08325 10.416937,-2.91662 l -0.06615,-0.0661 h 70.190547 l -0.07597,0.076 c 4.16687,0.83337 8.333696,1.66675 10.416936,2.91661 2.08323,1.24987 2.08349,2.91618 3.33364,3.74965 0.54694,0.36464 1.33267,0.57015 2.14871,0.58084 1.04919,0.0137 2.14793,-0.29414 2.85099,-0.99735 1.24987,-1.25016 1.24973,-3.75035 0.41651,-5.00022 -0.83322,-1.24986 -2.49948,-1.24965 -3.74964,-3.33312 -1.25017,-2.08348 -2.08385,-6.24996 -2.91713,-10.41642 l -0.0486,0.0486 v -41.1272 c 0.83311,-4.1656 1.66671,-8.33079 2.91662,-10.413841 1.25016,-2.08347 2.91642,-2.08326 3.74964,-3.33313 0.83322,-1.24986 0.83335,-3.75005 -0.41651,-5.00021 -0.70306,-0.70321 -1.8018,-1.01109 -2.85099,-0.99735 z m 0.40824,1.85105 a 1.625,1.625 0 0 1 1.62522,1.62522 1.625,1.625 0 0 1 -1.62522,1.62471 1.625,1.625 0 0 1 -1.62522,-1.62471 1.625,1.625 0 0 1 1.62522,-1.62522 z m -102.6609146,0.015 a 1.625,1.625 0 0 1 1.6252243,1.62523 1.625,1.625 0 0 1 -1.6252243,1.6247 1.625,1.625 0 0 1 -1.6252243,-1.6247 1.625,1.625 0 0 1 1.6252243,-1.62523 z M 20.84527,96.38245 h 53.309924 c 0.468038,0 0.84491,0.37687 0.84491,0.84491 v 7.80986 c 0,0.46804 -0.376872,0.84491 -0.84491,0.84491 H 20.84527 c -0.46804,0 -0.84491,-0.37687 -0.84491,-0.84491 v -7.80986 c 0,-0.46804 0.37687,-0.84491 0.84491,-0.84491 z M 6.1929339,160.59401 a 1.625,1.625 0 0 1 1.6252242,1.62471 1.625,1.625 0 0 1 -1.6252242,1.62522 1.625,1.625 0 0 1 -1.6252243,-1.62522 1.625,1.625 0 0 1 1.6252243,-1.62471 z m 102.6634961,0.01 a 1.625,1.625 0 0 1 1.62523,1.62471 1.625,1.625 0 0 1 -1.62523,1.62523 1.625,1.625 0 0 1 -1.62522,-1.62523 1.625,1.625 0 0 1 1.62522,-1.62471 z" />
  </g>
</svg>
